<mxfile host="app.diagrams.net" modified="2024-04-14T10:58:50.097Z" agent="Mozilla/5.0 (Windows NT 10.0; Win64; x64; rv:124.0) Gecko/20100101 Firefox/124.0" etag="8SU9-fhjIPQ4gjtoCnxS" version="24.2.3" type="device">
  <diagram name="Page-1" id="uMqA1R6x-6Gs1QEI-oIA">
    <mxGraphModel dx="2150" dy="1398" grid="0" gridSize="10" guides="1" tooltips="1" connect="1" arrows="1" fold="1" page="0" pageScale="1" pageWidth="827" pageHeight="1169" math="0" shadow="0">
      <root>
        <mxCell id="0" />
        <mxCell id="1" parent="0" />
        <mxCell id="FWMYH-VB2yFF3loCDDfO-70" value="" style="rounded=0;whiteSpace=wrap;html=1;fillColor=none;" vertex="1" parent="1">
          <mxGeometry x="-171" y="-266" width="1562" height="905" as="geometry" />
        </mxCell>
        <mxCell id="FWMYH-VB2yFF3loCDDfO-71" value="Δημιουργία Κουίζ για&lt;br&gt;Ιστορικό Περίπατο" style="ellipse;whiteSpace=wrap;html=1;" vertex="1" parent="1">
          <mxGeometry x="-91" y="-240" width="128" height="61" as="geometry" />
        </mxCell>
        <mxCell id="FWMYH-VB2yFF3loCDDfO-72" value="Διαχειριστής" style="shape=umlActor;verticalLabelPosition=bottom;verticalAlign=top;html=1;outlineConnect=0;" vertex="1" parent="1">
          <mxGeometry x="-292" y="-80" width="30" height="60" as="geometry" />
        </mxCell>
        <mxCell id="FWMYH-VB2yFF3loCDDfO-73" value="Χρήστης" style="shape=umlActor;verticalLabelPosition=bottom;verticalAlign=top;html=1;outlineConnect=0;" vertex="1" parent="1">
          <mxGeometry x="559" y="694" width="30" height="62" as="geometry" />
        </mxCell>
        <mxCell id="FWMYH-VB2yFF3loCDDfO-74" value="Σύστημα Τοποθεσίας" style="shape=umlActor;verticalLabelPosition=bottom;verticalAlign=top;html=1;outlineConnect=0;" vertex="1" parent="1">
          <mxGeometry x="1471" y="-80" width="30" height="60" as="geometry" />
        </mxCell>
        <mxCell id="FWMYH-VB2yFF3loCDDfO-75" value="Διόρθωση Ιστορικού Σημείου" style="ellipse;whiteSpace=wrap;html=1;fillColor=#d5e8d4;strokeColor=#82b366;" vertex="1" parent="1">
          <mxGeometry x="-91" y="-135" width="128" height="61" as="geometry" />
        </mxCell>
        <mxCell id="FWMYH-VB2yFF3loCDDfO-76" value="Διαγραφή Ιστορικού Σημείου" style="ellipse;whiteSpace=wrap;html=1;" vertex="1" parent="1">
          <mxGeometry x="94" y="-172" width="128" height="61" as="geometry" />
        </mxCell>
        <mxCell id="FWMYH-VB2yFF3loCDDfO-77" style="edgeStyle=none;curved=1;rounded=0;orthogonalLoop=1;jettySize=auto;html=1;exitX=0;exitY=0.5;exitDx=0;exitDy=0;entryX=1;entryY=0;entryDx=0;entryDy=0;fontSize=12;startSize=8;endSize=8;dashed=1;" edge="1" parent="1" source="FWMYH-VB2yFF3loCDDfO-78" target="FWMYH-VB2yFF3loCDDfO-80">
          <mxGeometry relative="1" as="geometry" />
        </mxCell>
        <mxCell id="FWMYH-VB2yFF3loCDDfO-78" value="Απόρριψη Συνεισφοράς" style="ellipse;whiteSpace=wrap;html=1;" vertex="1" parent="1">
          <mxGeometry x="91" y="1" width="128" height="61" as="geometry" />
        </mxCell>
        <mxCell id="FWMYH-VB2yFF3loCDDfO-80" value="Έγκριση Συνεισφοράς Χρήστη" style="ellipse;whiteSpace=wrap;html=1;fillColor=#d5e8d4;strokeColor=#82b366;" vertex="1" parent="1">
          <mxGeometry x="-91" y="38" width="128" height="61" as="geometry" />
        </mxCell>
        <mxCell id="FWMYH-VB2yFF3loCDDfO-81" value="Αφαίρεση Αξιολόγησης Χρήστη" style="ellipse;whiteSpace=wrap;html=1;" vertex="1" parent="1">
          <mxGeometry x="-87" y="121" width="128" height="61" as="geometry" />
        </mxCell>
        <mxCell id="FWMYH-VB2yFF3loCDDfO-82" value="Επεξεργασία Προφίλ Χρηστών" style="ellipse;whiteSpace=wrap;html=1;" vertex="1" parent="1">
          <mxGeometry x="-91" y="200" width="128" height="61" as="geometry" />
        </mxCell>
        <mxCell id="FWMYH-VB2yFF3loCDDfO-83" value="" style="endArrow=none;html=1;rounded=0;fontSize=12;startSize=8;endSize=8;curved=1;entryX=0;entryY=0.5;entryDx=0;entryDy=0;" edge="1" parent="1" target="FWMYH-VB2yFF3loCDDfO-71">
          <mxGeometry width="50" height="50" relative="1" as="geometry">
            <mxPoint x="-242" y="-47" as="sourcePoint" />
            <mxPoint x="-115" y="-108" as="targetPoint" />
          </mxGeometry>
        </mxCell>
        <mxCell id="FWMYH-VB2yFF3loCDDfO-84" value="" style="endArrow=none;html=1;rounded=0;fontSize=12;startSize=8;endSize=8;curved=1;entryX=0;entryY=0.5;entryDx=0;entryDy=0;" edge="1" parent="1" target="FWMYH-VB2yFF3loCDDfO-75">
          <mxGeometry width="50" height="50" relative="1" as="geometry">
            <mxPoint x="-242" y="-47" as="sourcePoint" />
            <mxPoint x="-115" y="-108" as="targetPoint" />
          </mxGeometry>
        </mxCell>
        <mxCell id="FWMYH-VB2yFF3loCDDfO-85" value="" style="endArrow=none;html=1;rounded=0;fontSize=12;startSize=8;endSize=8;curved=1;entryX=0;entryY=0.5;entryDx=0;entryDy=0;" edge="1" parent="1" target="FWMYH-VB2yFF3loCDDfO-81">
          <mxGeometry width="50" height="50" relative="1" as="geometry">
            <mxPoint x="-241" y="-47" as="sourcePoint" />
            <mxPoint x="-230" y="92" as="targetPoint" />
          </mxGeometry>
        </mxCell>
        <mxCell id="FWMYH-VB2yFF3loCDDfO-86" value="" style="endArrow=none;html=1;rounded=0;fontSize=12;startSize=8;endSize=8;curved=1;entryX=0.5;entryY=1;entryDx=0;entryDy=0;" edge="1" parent="1" target="FWMYH-VB2yFF3loCDDfO-93">
          <mxGeometry width="50" height="50" relative="1" as="geometry">
            <mxPoint x="570" y="682" as="sourcePoint" />
            <mxPoint x="-148" y="374" as="targetPoint" />
          </mxGeometry>
        </mxCell>
        <mxCell id="FWMYH-VB2yFF3loCDDfO-87" value="" style="endArrow=none;html=1;rounded=0;fontSize=12;startSize=8;endSize=8;curved=1;entryX=0;entryY=0.5;entryDx=0;entryDy=0;" edge="1" parent="1" target="FWMYH-VB2yFF3loCDDfO-80">
          <mxGeometry width="50" height="50" relative="1" as="geometry">
            <mxPoint x="-240" y="-47" as="sourcePoint" />
            <mxPoint x="-139" y="40" as="targetPoint" />
          </mxGeometry>
        </mxCell>
        <mxCell id="FWMYH-VB2yFF3loCDDfO-88" value="" style="endArrow=none;html=1;rounded=0;fontSize=12;startSize=8;endSize=8;curved=1;entryX=0;entryY=0.5;entryDx=0;entryDy=0;" edge="1" parent="1" target="FWMYH-VB2yFF3loCDDfO-82">
          <mxGeometry width="50" height="50" relative="1" as="geometry">
            <mxPoint x="-240" y="-48" as="sourcePoint" />
            <mxPoint x="-117" y="192" as="targetPoint" />
          </mxGeometry>
        </mxCell>
        <mxCell id="FWMYH-VB2yFF3loCDDfO-89" style="edgeStyle=none;curved=1;rounded=0;orthogonalLoop=1;jettySize=auto;html=1;exitX=0;exitY=0.5;exitDx=0;exitDy=0;entryX=1;entryY=0;entryDx=0;entryDy=0;fontSize=12;startSize=8;endSize=8;dashed=1;" edge="1" parent="1" source="FWMYH-VB2yFF3loCDDfO-76" target="FWMYH-VB2yFF3loCDDfO-75">
          <mxGeometry relative="1" as="geometry">
            <mxPoint x="89" y="-103" as="sourcePoint" />
            <mxPoint x="25" y="-69" as="targetPoint" />
          </mxGeometry>
        </mxCell>
        <mxCell id="FWMYH-VB2yFF3loCDDfO-91" value="&lt;font style=&quot;font-size: 12px;&quot;&gt;&amp;lt;&amp;lt;&lt;font style=&quot;font-size: 12px;&quot;&gt;extends&amp;gt;&amp;gt;&lt;/font&gt;&lt;/font&gt;" style="text;html=1;align=center;verticalAlign=middle;resizable=0;points=[];autosize=1;strokeColor=none;fillColor=none;fontSize=16;" vertex="1" parent="1">
          <mxGeometry x="3" y="7" width="88" height="31" as="geometry" />
        </mxCell>
        <mxCell id="FWMYH-VB2yFF3loCDDfO-92" value="&lt;font style=&quot;font-size: 12px;&quot;&gt;&amp;lt;&amp;lt;&lt;font style=&quot;font-size: 12px;&quot;&gt;extends&amp;gt;&amp;gt;&lt;/font&gt;&lt;/font&gt;" style="text;html=1;align=center;verticalAlign=middle;resizable=0;points=[];autosize=1;strokeColor=none;fillColor=none;fontSize=16;" vertex="1" parent="1">
          <mxGeometry x="6" y="-166" width="88" height="31" as="geometry" />
        </mxCell>
        <mxCell id="FWMYH-VB2yFF3loCDDfO-93" value="Διοργάνωση Ξενάγησης" style="ellipse;whiteSpace=wrap;html=1;" vertex="1" parent="1">
          <mxGeometry x="-41" y="306" width="128" height="61" as="geometry" />
        </mxCell>
        <mxCell id="FWMYH-VB2yFF3loCDDfO-94" value="Επεξεργασία Προφίλ" style="ellipse;whiteSpace=wrap;html=1;" vertex="1" parent="1">
          <mxGeometry x="-98" y="396" width="128" height="61" as="geometry" />
        </mxCell>
        <mxCell id="FWMYH-VB2yFF3loCDDfO-95" value="Αναζήτηση Ιστορικών Σημείων" style="ellipse;whiteSpace=wrap;html=1;fillColor=#d5e8d4;strokeColor=#82b366;" vertex="1" parent="1">
          <mxGeometry x="114" y="297" width="128" height="61" as="geometry" />
        </mxCell>
        <mxCell id="FWMYH-VB2yFF3loCDDfO-96" value="Αξιολόγηση Σημείου" style="ellipse;whiteSpace=wrap;html=1;" vertex="1" parent="1">
          <mxGeometry x="1237" y="462" width="128" height="61" as="geometry" />
        </mxCell>
        <mxCell id="FWMYH-VB2yFF3loCDDfO-97" value="Σύνδεση" style="ellipse;whiteSpace=wrap;html=1;" vertex="1" parent="1">
          <mxGeometry x="357" y="276" width="128" height="61" as="geometry" />
        </mxCell>
        <mxCell id="FWMYH-VB2yFF3loCDDfO-98" value="Αξιολόγηση Ξενάγησης" style="ellipse;whiteSpace=wrap;html=1;" vertex="1" parent="1">
          <mxGeometry x="278" y="358" width="128" height="61" as="geometry" />
        </mxCell>
        <mxCell id="FWMYH-VB2yFF3loCDDfO-99" value="Συνεισφορά Ιστορικού Σημείου" style="ellipse;whiteSpace=wrap;html=1;fillColor=#d5e8d4;strokeColor=#82b366;" vertex="1" parent="1">
          <mxGeometry x="495" y="285" width="128" height="61" as="geometry" />
        </mxCell>
        <mxCell id="FWMYH-VB2yFF3loCDDfO-100" value="Συμμετοχή σε Ιστορικό Περίπατο" style="ellipse;whiteSpace=wrap;html=1;fillColor=#d5e8d4;strokeColor=#82b366;" vertex="1" parent="1">
          <mxGeometry x="570" y="382" width="128" height="61" as="geometry" />
        </mxCell>
        <mxCell id="FWMYH-VB2yFF3loCDDfO-101" value="Συνεισφορά Ιστορικού Περιπάτου" style="ellipse;whiteSpace=wrap;html=1;fillColor=#d5e8d4;strokeColor=#82b366;" vertex="1" parent="1">
          <mxGeometry x="685" y="270" width="128" height="61" as="geometry" />
        </mxCell>
        <mxCell id="FWMYH-VB2yFF3loCDDfO-102" value="Κράτηση Ξενάγησης" style="ellipse;whiteSpace=wrap;html=1;fillColor=#d5e8d4;strokeColor=#82b366;" vertex="1" parent="1">
          <mxGeometry x="725" y="382" width="128" height="61" as="geometry" />
        </mxCell>
        <mxCell id="FWMYH-VB2yFF3loCDDfO-103" value="Εγγραφή" style="ellipse;whiteSpace=wrap;html=1;" vertex="1" parent="1">
          <mxGeometry x="968" y="396" width="128" height="61" as="geometry" />
        </mxCell>
        <mxCell id="FWMYH-VB2yFF3loCDDfO-104" style="edgeStyle=none;curved=1;rounded=0;orthogonalLoop=1;jettySize=auto;html=1;exitX=0;exitY=0.5;exitDx=0;exitDy=0;entryX=1;entryY=0.5;entryDx=0;entryDy=0;fontSize=12;startSize=8;endSize=8;dashed=1;" edge="1" parent="1" source="FWMYH-VB2yFF3loCDDfO-105" target="FWMYH-VB2yFF3loCDDfO-101">
          <mxGeometry relative="1" as="geometry" />
        </mxCell>
        <mxCell id="FWMYH-VB2yFF3loCDDfO-105" value="Ακύρωση Δημιουργίας Ιστορικού Περιπάτου" style="ellipse;whiteSpace=wrap;html=1;" vertex="1" parent="1">
          <mxGeometry x="929" y="215" width="128" height="61" as="geometry" />
        </mxCell>
        <mxCell id="FWMYH-VB2yFF3loCDDfO-106" style="edgeStyle=none;curved=1;rounded=0;orthogonalLoop=1;jettySize=auto;html=1;exitX=0.5;exitY=1;exitDx=0;exitDy=0;entryX=0.5;entryY=0;entryDx=0;entryDy=0;fontSize=12;startSize=8;endSize=8;dashed=1;" edge="1" parent="1" source="FWMYH-VB2yFF3loCDDfO-107" target="FWMYH-VB2yFF3loCDDfO-99">
          <mxGeometry relative="1" as="geometry" />
        </mxCell>
        <mxCell id="FWMYH-VB2yFF3loCDDfO-107" value="Ακύρωση Δημιουργίας Ιστορικού Σημείου" style="ellipse;whiteSpace=wrap;html=1;" vertex="1" parent="1">
          <mxGeometry x="485" y="112" width="128" height="61" as="geometry" />
        </mxCell>
        <mxCell id="FWMYH-VB2yFF3loCDDfO-108" value="Προσθήκη Σημείου στα Αγαπημένα" style="ellipse;whiteSpace=wrap;html=1;" vertex="1" parent="1">
          <mxGeometry x="857" y="306" width="128" height="61" as="geometry" />
        </mxCell>
        <mxCell id="FWMYH-VB2yFF3loCDDfO-109" value="Εκκίνηση Κοινής Περιήγησης" style="ellipse;whiteSpace=wrap;html=1;" vertex="1" parent="1">
          <mxGeometry x="1032" y="285" width="128" height="61" as="geometry" />
        </mxCell>
        <mxCell id="FWMYH-VB2yFF3loCDDfO-110" value="Συμμετοχή σε Κοινή Περιήγηση" style="ellipse;whiteSpace=wrap;html=1;" vertex="1" parent="1">
          <mxGeometry x="1163" y="369" width="128" height="61" as="geometry" />
        </mxCell>
        <mxCell id="FWMYH-VB2yFF3loCDDfO-111" value="Ιστορικό Επισκέψεων" style="ellipse;whiteSpace=wrap;html=1;fillColor=#d5e8d4;strokeColor=#82b366;" vertex="1" parent="1">
          <mxGeometry x="1057" y="525" width="128" height="61" as="geometry" />
        </mxCell>
        <mxCell id="FWMYH-VB2yFF3loCDDfO-112" value="" style="endArrow=none;html=1;rounded=0;fontSize=12;startSize=8;endSize=8;curved=1;entryX=0.5;entryY=1;entryDx=0;entryDy=0;" edge="1" parent="1" target="FWMYH-VB2yFF3loCDDfO-95">
          <mxGeometry width="50" height="50" relative="1" as="geometry">
            <mxPoint x="570" y="682" as="sourcePoint" />
            <mxPoint x="443" y="541" as="targetPoint" />
          </mxGeometry>
        </mxCell>
        <mxCell id="FWMYH-VB2yFF3loCDDfO-113" value="" style="endArrow=none;html=1;rounded=0;fontSize=12;startSize=8;endSize=8;curved=1;entryX=0.5;entryY=1;entryDx=0;entryDy=0;" edge="1" parent="1" target="FWMYH-VB2yFF3loCDDfO-98">
          <mxGeometry width="50" height="50" relative="1" as="geometry">
            <mxPoint x="570" y="682" as="sourcePoint" />
            <mxPoint x="443" y="543" as="targetPoint" />
          </mxGeometry>
        </mxCell>
        <mxCell id="FWMYH-VB2yFF3loCDDfO-114" value="" style="endArrow=none;html=1;rounded=0;fontSize=12;startSize=8;endSize=8;curved=1;entryX=0.5;entryY=1;entryDx=0;entryDy=0;" edge="1" parent="1" target="FWMYH-VB2yFF3loCDDfO-97">
          <mxGeometry width="50" height="50" relative="1" as="geometry">
            <mxPoint x="572" y="684" as="sourcePoint" />
            <mxPoint x="871.3727172873278" y="495.99778877156507" as="targetPoint" />
          </mxGeometry>
        </mxCell>
        <mxCell id="FWMYH-VB2yFF3loCDDfO-115" value="" style="endArrow=none;html=1;rounded=0;fontSize=12;startSize=8;endSize=8;curved=1;entryX=0.5;entryY=1;entryDx=0;entryDy=0;" edge="1" parent="1" target="FWMYH-VB2yFF3loCDDfO-100">
          <mxGeometry width="50" height="50" relative="1" as="geometry">
            <mxPoint x="572" y="682" as="sourcePoint" />
            <mxPoint x="445" y="543" as="targetPoint" />
          </mxGeometry>
        </mxCell>
        <mxCell id="FWMYH-VB2yFF3loCDDfO-116" value="" style="endArrow=none;html=1;rounded=0;fontSize=12;startSize=8;endSize=8;curved=1;entryX=0.5;entryY=1;entryDx=0;entryDy=0;" edge="1" parent="1" target="FWMYH-VB2yFF3loCDDfO-94">
          <mxGeometry width="50" height="50" relative="1" as="geometry">
            <mxPoint x="572" y="681" as="sourcePoint" />
            <mxPoint x="443" y="541" as="targetPoint" />
          </mxGeometry>
        </mxCell>
        <mxCell id="FWMYH-VB2yFF3loCDDfO-117" value="" style="endArrow=none;html=1;rounded=0;fontSize=12;startSize=8;endSize=8;curved=1;entryX=0.5;entryY=1;entryDx=0;entryDy=0;" edge="1" parent="1" target="FWMYH-VB2yFF3loCDDfO-102">
          <mxGeometry width="50" height="50" relative="1" as="geometry">
            <mxPoint x="572" y="682" as="sourcePoint" />
            <mxPoint x="753" y="549" as="targetPoint" />
          </mxGeometry>
        </mxCell>
        <mxCell id="FWMYH-VB2yFF3loCDDfO-118" value="" style="endArrow=none;html=1;rounded=0;fontSize=12;startSize=8;endSize=8;curved=1;entryX=0;entryY=1;entryDx=0;entryDy=0;" edge="1" parent="1" target="FWMYH-VB2yFF3loCDDfO-103">
          <mxGeometry width="50" height="50" relative="1" as="geometry">
            <mxPoint x="572" y="682" as="sourcePoint" />
            <mxPoint x="953" y="503" as="targetPoint" />
          </mxGeometry>
        </mxCell>
        <mxCell id="FWMYH-VB2yFF3loCDDfO-119" value="" style="endArrow=none;html=1;rounded=0;fontSize=12;startSize=8;endSize=8;curved=1;entryX=0;entryY=1;entryDx=0;entryDy=0;" edge="1" parent="1" target="FWMYH-VB2yFF3loCDDfO-110">
          <mxGeometry width="50" height="50" relative="1" as="geometry">
            <mxPoint x="570" y="682" as="sourcePoint" />
            <mxPoint x="1250" y="405" as="targetPoint" />
          </mxGeometry>
        </mxCell>
        <mxCell id="FWMYH-VB2yFF3loCDDfO-120" value="" style="endArrow=none;html=1;rounded=0;fontSize=12;startSize=8;endSize=8;curved=1;entryX=0.5;entryY=1;entryDx=0;entryDy=0;" edge="1" parent="1" target="FWMYH-VB2yFF3loCDDfO-108">
          <mxGeometry width="50" height="50" relative="1" as="geometry">
            <mxPoint x="572" y="682" as="sourcePoint" />
            <mxPoint x="897" y="591" as="targetPoint" />
          </mxGeometry>
        </mxCell>
        <mxCell id="FWMYH-VB2yFF3loCDDfO-121" value="" style="endArrow=none;html=1;rounded=0;fontSize=12;startSize=8;endSize=8;curved=1;entryX=0.5;entryY=1;entryDx=0;entryDy=0;" edge="1" parent="1" target="FWMYH-VB2yFF3loCDDfO-101">
          <mxGeometry width="50" height="50" relative="1" as="geometry">
            <mxPoint x="572" y="682" as="sourcePoint" />
            <mxPoint x="743" y="340" as="targetPoint" />
          </mxGeometry>
        </mxCell>
        <mxCell id="FWMYH-VB2yFF3loCDDfO-122" value="" style="endArrow=none;html=1;rounded=0;fontSize=12;startSize=8;endSize=8;curved=1;entryX=0;entryY=0.5;entryDx=0;entryDy=0;" edge="1" parent="1" target="FWMYH-VB2yFF3loCDDfO-111">
          <mxGeometry width="50" height="50" relative="1" as="geometry">
            <mxPoint x="572" y="682" as="sourcePoint" />
            <mxPoint x="1146" y="568" as="targetPoint" />
          </mxGeometry>
        </mxCell>
        <mxCell id="FWMYH-VB2yFF3loCDDfO-123" value="" style="endArrow=none;html=1;rounded=0;fontSize=12;startSize=8;endSize=8;curved=1;exitX=0.5;exitY=1;exitDx=0;exitDy=0;" edge="1" parent="1" source="FWMYH-VB2yFF3loCDDfO-99">
          <mxGeometry width="50" height="50" relative="1" as="geometry">
            <mxPoint x="632" y="374" as="sourcePoint" />
            <mxPoint x="573" y="682" as="targetPoint" />
          </mxGeometry>
        </mxCell>
        <mxCell id="FWMYH-VB2yFF3loCDDfO-124" value="" style="endArrow=none;html=1;rounded=0;fontSize=12;startSize=8;endSize=8;curved=1;entryX=0;entryY=1;entryDx=0;entryDy=0;" edge="1" parent="1" target="FWMYH-VB2yFF3loCDDfO-109">
          <mxGeometry width="50" height="50" relative="1" as="geometry">
            <mxPoint x="570" y="682" as="sourcePoint" />
            <mxPoint x="963" y="695" as="targetPoint" />
          </mxGeometry>
        </mxCell>
        <mxCell id="FWMYH-VB2yFF3loCDDfO-125" value="" style="endArrow=none;html=1;rounded=0;fontSize=12;startSize=8;endSize=8;curved=1;exitX=1;exitY=0;exitDx=0;exitDy=0;" edge="1" parent="1" source="FWMYH-VB2yFF3loCDDfO-95">
          <mxGeometry width="50" height="50" relative="1" as="geometry">
            <mxPoint x="301" y="99" as="sourcePoint" />
            <mxPoint x="1421" y="-47" as="targetPoint" />
          </mxGeometry>
        </mxCell>
        <mxCell id="FWMYH-VB2yFF3loCDDfO-126" value="" style="endArrow=none;html=1;rounded=0;fontSize=12;startSize=8;endSize=8;curved=1;exitX=0.5;exitY=0;exitDx=0;exitDy=0;" edge="1" parent="1" source="FWMYH-VB2yFF3loCDDfO-101">
          <mxGeometry width="50" height="50" relative="1" as="geometry">
            <mxPoint x="655" y="-67" as="sourcePoint" />
            <mxPoint x="1422" y="-48" as="targetPoint" />
          </mxGeometry>
        </mxCell>
        <mxCell id="FWMYH-VB2yFF3loCDDfO-127" value="" style="endArrow=none;html=1;rounded=0;fontSize=12;startSize=8;endSize=8;curved=1;exitX=0.5;exitY=0;exitDx=0;exitDy=0;" edge="1" parent="1" source="FWMYH-VB2yFF3loCDDfO-99">
          <mxGeometry width="50" height="50" relative="1" as="geometry">
            <mxPoint x="895" y="-5" as="sourcePoint" />
            <mxPoint x="1422" y="-48" as="targetPoint" />
          </mxGeometry>
        </mxCell>
        <mxCell id="FWMYH-VB2yFF3loCDDfO-128" value="" style="endArrow=none;html=1;rounded=0;fontSize=12;startSize=8;endSize=8;curved=1;entryX=0.5;entryY=0;entryDx=0;entryDy=0;" edge="1" parent="1" target="FWMYH-VB2yFF3loCDDfO-110">
          <mxGeometry width="50" height="50" relative="1" as="geometry">
            <mxPoint x="1421" y="-47" as="sourcePoint" />
            <mxPoint x="559" y="-145" as="targetPoint" />
          </mxGeometry>
        </mxCell>
        <mxCell id="FWMYH-VB2yFF3loCDDfO-129" value="" style="endArrow=none;html=1;rounded=0;fontSize=12;startSize=8;endSize=8;curved=1;entryX=0.5;entryY=0;entryDx=0;entryDy=0;" edge="1" parent="1" target="FWMYH-VB2yFF3loCDDfO-109">
          <mxGeometry width="50" height="50" relative="1" as="geometry">
            <mxPoint x="1420" y="-45" as="sourcePoint" />
            <mxPoint x="1463" y="230" as="targetPoint" />
          </mxGeometry>
        </mxCell>
        <mxCell id="FWMYH-VB2yFF3loCDDfO-130" value="&lt;font style=&quot;font-size: 12px;&quot;&gt;&amp;lt;&amp;lt;&lt;font style=&quot;font-size: 12px;&quot;&gt;extends&amp;gt;&amp;gt;&lt;/font&gt;&lt;/font&gt;" style="text;html=1;align=center;verticalAlign=middle;resizable=0;points=[];autosize=1;strokeColor=none;fillColor=none;fontSize=16;" vertex="1" parent="1">
          <mxGeometry x="546" y="200" width="88" height="31" as="geometry" />
        </mxCell>
        <mxCell id="FWMYH-VB2yFF3loCDDfO-131" value="&lt;font style=&quot;font-size: 12px;&quot;&gt;&amp;lt;&amp;lt;&lt;font style=&quot;font-size: 12px;&quot;&gt;extends&amp;gt;&amp;gt;&lt;/font&gt;&lt;/font&gt;" style="text;html=1;align=center;verticalAlign=middle;resizable=0;points=[];autosize=1;strokeColor=none;fillColor=none;fontSize=16;" vertex="1" parent="1">
          <mxGeometry x="861" y="262" width="88" height="31" as="geometry" />
        </mxCell>
        <mxCell id="FWMYH-VB2yFF3loCDDfO-132" value="&lt;font style=&quot;font-size: 18px;&quot;&gt;Σύστημα&lt;/font&gt;" style="text;html=1;align=center;verticalAlign=middle;resizable=0;points=[];autosize=1;strokeColor=none;fillColor=none;fontSize=16;" vertex="1" parent="1">
          <mxGeometry x="-175" y="-303" width="88" height="34" as="geometry" />
        </mxCell>
        <mxCell id="FWMYH-VB2yFF3loCDDfO-133" value="" style="edgeStyle=segmentEdgeStyle;endArrow=classic;html=1;curved=0;rounded=0;endSize=8;startSize=8;fontSize=12;" edge="1" parent="1">
          <mxGeometry width="50" height="50" relative="1" as="geometry">
            <mxPoint x="-276" y="13" as="sourcePoint" />
            <mxPoint x="536" y="731" as="targetPoint" />
            <Array as="points">
              <mxPoint x="-276" y="731" />
            </Array>
          </mxGeometry>
        </mxCell>
        <mxCell id="FWMYH-VB2yFF3loCDDfO-134" style="edgeStyle=none;curved=1;rounded=0;orthogonalLoop=1;jettySize=auto;html=1;exitX=0.5;exitY=1;exitDx=0;exitDy=0;entryX=0.5;entryY=0;entryDx=0;entryDy=0;fontSize=12;startSize=8;endSize=8;dashed=1;" edge="1" parent="1" source="FWMYH-VB2yFF3loCDDfO-135" target="FWMYH-VB2yFF3loCDDfO-95">
          <mxGeometry relative="1" as="geometry" />
        </mxCell>
        <mxCell id="FWMYH-VB2yFF3loCDDfO-135" value="Αναφορά Λάθους" style="ellipse;whiteSpace=wrap;html=1;" vertex="1" parent="1">
          <mxGeometry x="83" y="195" width="128" height="61" as="geometry" />
        </mxCell>
        <mxCell id="FWMYH-VB2yFF3loCDDfO-136" value="&lt;font style=&quot;font-size: 12px;&quot;&gt;&amp;lt;&amp;lt;extends&lt;font style=&quot;font-size: 12px;&quot;&gt;&amp;gt;&amp;gt;&lt;/font&gt;&lt;/font&gt;" style="text;html=1;align=center;verticalAlign=middle;resizable=0;points=[];autosize=1;strokeColor=none;fillColor=none;fontSize=16;" vertex="1" parent="1">
          <mxGeometry x="83" y="261" width="88" height="31" as="geometry" />
        </mxCell>
        <mxCell id="FWMYH-VB2yFF3loCDDfO-137" style="edgeStyle=none;curved=1;rounded=0;orthogonalLoop=1;jettySize=auto;html=1;exitX=0;exitY=1;exitDx=0;exitDy=0;entryX=1;entryY=0;entryDx=0;entryDy=0;fontSize=12;startSize=8;endSize=8;dashed=1;" edge="1" parent="1" source="FWMYH-VB2yFF3loCDDfO-96" target="FWMYH-VB2yFF3loCDDfO-111">
          <mxGeometry relative="1" as="geometry">
            <mxPoint x="549" y="156" as="sourcePoint" />
            <mxPoint x="569" y="295" as="targetPoint" />
          </mxGeometry>
        </mxCell>
        <mxCell id="FWMYH-VB2yFF3loCDDfO-138" value="&lt;font style=&quot;font-size: 12px;&quot;&gt;&amp;lt;&amp;lt;&lt;font style=&quot;font-size: 12px;&quot;&gt;extends&amp;gt;&amp;gt;&lt;/font&gt;&lt;/font&gt;" style="text;html=1;align=center;verticalAlign=middle;resizable=0;points=[];autosize=1;strokeColor=none;fillColor=none;fontSize=16;" vertex="1" parent="1">
          <mxGeometry x="1183" y="520" width="88" height="31" as="geometry" />
        </mxCell>
        <mxCell id="FWMYH-VB2yFF3loCDDfO-139" value="Διόρθωση Ιστορικού Περιπάτου" style="ellipse;whiteSpace=wrap;html=1;" vertex="1" parent="1">
          <mxGeometry x="-91" y="-57" width="128" height="61" as="geometry" />
        </mxCell>
        <mxCell id="FWMYH-VB2yFF3loCDDfO-142" style="edgeStyle=none;curved=1;rounded=0;orthogonalLoop=1;jettySize=auto;html=1;exitX=0;exitY=0.5;exitDx=0;exitDy=0;fontSize=12;startSize=8;endSize=8;entryX=1;entryY=0;entryDx=0;entryDy=0;dashed=1;" edge="1" parent="1" source="FWMYH-VB2yFF3loCDDfO-140" target="FWMYH-VB2yFF3loCDDfO-139">
          <mxGeometry relative="1" as="geometry" />
        </mxCell>
        <mxCell id="FWMYH-VB2yFF3loCDDfO-140" value="Διαγραφή Ιστορικού Περιπάτου" style="ellipse;whiteSpace=wrap;html=1;" vertex="1" parent="1">
          <mxGeometry x="91" y="-98" width="128" height="61" as="geometry" />
        </mxCell>
        <mxCell id="FWMYH-VB2yFF3loCDDfO-143" value="&lt;font style=&quot;font-size: 12px;&quot;&gt;&amp;lt;&amp;lt;&lt;font style=&quot;font-size: 12px;&quot;&gt;extends&amp;gt;&amp;gt;&lt;/font&gt;&lt;/font&gt;" style="text;html=1;align=center;verticalAlign=middle;resizable=0;points=[];autosize=1;strokeColor=none;fillColor=none;fontSize=16;" vertex="1" parent="1">
          <mxGeometry x="6" y="-88" width="88" height="31" as="geometry" />
        </mxCell>
      </root>
    </mxGraphModel>
  </diagram>
</mxfile>
